:FULLY-SPECIFIED
:FORCE-ALL-JOINTS-BE-3DOF
:DEGREES
307
root 9.85991 16.6238 6.54955 6.00714 4.6381 2.99589
lfemur 9.53471 5.36763 -24.3772
ltibia 11.5316 0 0
lfoot -9.38162 0.70656 0
ltoes -9.74131 0 0
rfemur -38.9707 0.370234 16.4088
rtibia 44.102 0 0
rfoot -13.8652 -6.34339 0
rtoes -21.755 0 0
lowerback -6.47738 -3.95727 -4.69361
upperback -0.710225 -5.00582 2.19987
thorax 3.49324 -2.5749 4.4084
lowerneck -20.4038 -4.25911 -12.2514
upperneck 21.8429 -5.25844 12.2751
head 11.1315 -1.9641 5.76992
lclavicle 3.3174e-14 -3.72357e-15 0
lhumerus -18.9783 -26.8753 93.468
lradius 31.8929 0 0
lwrist 5.402 0 0
lhand -11.8732 -24.7228 0
lfingers 7.12502 0 0
lthumb 14.1758 4.71896 0
rclavicle 3.3174e-14 -3.72357e-15 0
rhumerus -48.4532 6.85225 -82.8134
rradius 35.8693 0 0
rwrist -19.3766 0 0
rhand -29.0248 -23.0137 0
rfingers 7.12502 0 0
rthumb -2.37565 -52.9791 0
308
root 9.84942 16.611 6.71398 6.04467 4.84924 2.98413
lfemur 10.3454 5.38306 -24.1092
ltibia 11.0074 0 0
lfoot -8.8634 0.493397 0
ltoes -9.99688 0 0
rfemur -39.1427 0.410965 16.4235
rtibia 43.9326 0 0
rfoot -13.4888 -6.0232 0
rtoes -21.6376 0 0
lowerback -6.5424 -3.98999 -4.70922
upperback -0.74076 -5.04571 2.20486
thorax 3.50423 -2.59449 4.41457
lowerneck -20.3312 -4.28602 -12.2925
upperneck 21.7915 -5.30212 12.3299
head 11.108 -1.98304 5.78875
lclavicle 3.32722e-14 -4.42174e-15 0
lhumerus -19.3103 -27.3251 93.8489
lradius 32.2034 0 0
lwrist 5.51664 0 0
lhand -11.6477 -24.7331 0
lfingers 7.12502 0 0
lthumb 14.3931 4.69297 0
rclavicle 3.32722e-14 -4.42174e-15 0
rhumerus -48.5277 6.81381 -82.8106
rradius 35.5982 0 0
rwrist -19.1782 0 0
rhand -28.9886 -23.1005 0
rfingers 7.12502 0 0
rthumb -2.34068 -53.0662 0
309
root 9.83893 16.5982 6.87842 6.0822 5.06038 2.97237
lfemur 11.1561 5.3985 -23.8411
ltibia 10.4833 0 0
lfoot -8.34517 0.280233 0
ltoes -10.2524 0 0
rfemur -39.3148 0.451695 16.4382
rtibia 43.7632 0 0
rfoot -13.1123 -5.70302 0
rtoes -21.5203 0 0
lowerback -6.60743 -4.0227 -4.72482
upperback -0.771295 -5.0856 2.20984
thorax 3.51521 -2.61407 4.42073
lowerneck -20.2585 -4.31293 -12.3336
upperneck 21.74 -5.34581 12.3847
head 11.0846 -2.00197 5.80758
lclavicle 3.33704e-14 -5.1199e-15 0
lhumerus -19.6423 -27.7749 94.2299
lradius 32.5139 0 0
lwrist 5.63128 0 0
lhand -11.4221 -24.7434 0
lfingers 7.12502 0 0
lthumb 14.6103 4.66699 0
rclavicle 3.33704e-14 -5.1199e-15 0
rhumerus -48.6023 6.77538 -82.8079
rradius 35.3272 0 0
rwrist -18.9799 0 0
rhand -28.9524 -23.1873 0
rfingers 7.12502 0 0
rthumb -2.30572 -53.1534 0
310
root 9.82844 16.5854 7.04285 6.11973 5.27151 2.96061
lfemur 11.9668 5.41393 -23.5731
ltibia 9.9591 0 0
lfoot -7.82695 0.0670695 0
ltoes -10.508 0 0
rfemur -39.4868 0.492426 16.4529
rtibia 43.5938 0 0
rfoot -12.7359 -5.38284 0
rtoes -21.4029 0 0
lowerback -6.67245 -4.05542 -4.74043
upperback -0.80183 -5.12549 2.21483
thorax 3.5262 -2.63366 4.4269
lowerneck -20.1859 -4.33984 -12.3747
upperneck 21.6886 -5.38949 12.4395
head 11.0611 -2.02091 5.82641
lclavicle 3.34686e-14 -5.81807e-15 0
lhumerus -19.9743 -28.2247 94.6108
lradius 32.8244 0 0
lwrist 5.74592 0 0
lhand -11.1966 -24.7537 0
lfingers 7.12502 0 0
lthumb 14.8276 4.641 0
rclavicle 3.34686e-14 -5.81807e-15 0
rhumerus -48.6768 6.73694 -82.8051
rradius 35.0561 0 0
rwrist -18.7815 0 0
rhand -28.9162 -23.2741 0
rfingers 7.12502 0 0
rthumb -2.27075 -53.2405 0
311
root 9.81795 16.5725 7.20729 6.15726 5.48265 2.94885
lfemur 12.7775 5.42937 -23.305
ltibia 9.43494 0 0
lfoot -7.30872 -0.146094 0
ltoes -10.7636 0 0
rfemur -39.6588 0.533157 16.4676
rtibia 43.4245 0 0
rfoot -12.3594 -5.06265 0
rtoes -21.2855 0 0
lowerback -6.73747 -4.08813 -4.75604
upperback -0.832366 -5.16539 2.21982
thorax 3.53718 -2.65324 4.43307
lowerneck -20.1133 -4.36675 -12.4157
upperneck 21.6372 -5.43317 12.4943
head 11.0376 -2.03985 5.84524
lclavicle 3.35668e-14 -6.51624e-15 0
lhumerus -20.3062 -28.6745 94.9917
lradius 33.1349 0 0
lwrist 5.86056 0 0
lhand -10.9711 -24.764 0
lfingers 7.12502 0 0
lthumb 15.0449 4.61501 0
rclavicle 3.35668e-14 -6.51624e-15 0
rhumerus -48.7513 6.6985 -82.8023
rradius 34.7851 0 0
rwrist -18.5832 0 0
rhand -28.88 -23.3609 0
rfingers 7.12502 0 0
rthumb -2.23578 -53.3277 0
312
root 9.80746 16.5597 7.37172 6.19479 5.69379 2.93709
lfemur 13.5881 5.4448 -23.037
ltibia 8.91078 0 0
lfoot -6.7905 -0.359258 0
ltoes -11.0192 0 0
rfemur -39.8309 0.573888 16.4823
rtibia 43.2551 0 0
rfoot -11.983 -4.74247 0
rtoes -21.1681 0 0
lowerback -6.80249 -4.12085 -4.77165
upperback -0.862901 -5.20528 2.22481
thorax 3.54817 -2.67283 4.43923
lowerneck -20.0407 -4.39366 -12.4568
upperneck 21.5857 -5.47685 12.5491
head 11.0141 -2.05879 5.86408
lclavicle 3.36649e-14 -7.21441e-15 0
lhumerus -20.6382 -29.1242 95.3726
lradius 33.4453 0 0
lwrist 5.9752 0 0
lhand -10.7455 -24.7742 0
lfingers 7.12502 0 0
lthumb 15.2622 4.58902 0
rclavicle 3.36649e-14 -7.21441e-15 0
rhumerus -48.8258 6.66006 -82.7996
rradius 34.5141 0 0
rwrist -18.3848 0 0
rhand -28.8438 -23.4476 0
rfingers 7.12502 0 0
rthumb -2.20081 -53.4149 0
313
root 9.79697 16.5469 7.53615 6.23232 5.90492 2.92533
lfemur 14.3988 5.46024 -22.7689
ltibia 8.38661 0 0
lfoot -6.27227 -0.572421 0
ltoes -11.2747 0 0
rfemur -40.0029 0.614618 16.497
rtibia 43.0857 0 0
rfoot -11.6066 -4.42228 0
rtoes -21.0507 0 0
lowerback -6.86751 -4.15356 -4.78725
upperback -0.893436 -5.24517 2.2298
thorax 3.55915 -2.69242 4.4454
lowerneck -19.9681 -4.42057 -12.4979
upperneck 21.5343 -5.52053 12.6039
head 10.9906 -2.07773 5.88291
lclavicle 3.37631e-14 -7.91258e-15 0
lhumerus -20.9702 -29.574 95.7535
lradius 33.7558 0 0
lwrist 6.08984 0 0
lhand -10.52 -24.7845 0
lfingers 7.12502 0 0
lthumb 15.4795 4.56303 0
rclavicle 3.37631e-14 -7.91258e-15 0
rhumerus -48.9004 6.62162 -82.7968
rradius 34.243 0 0
rwrist -18.1864 0 0
rhand -28.8076 -23.5344 0
rfingers 7.12502 0 0
rthumb -2.16584 -53.502 0
